<svg width="140" height="124" viewBox="0 0 140 124" fill="none" xmlns="http://www.w3.org/2000/svg">
<g filter="url(#filter0_d)">
<circle cx="80" cy="56" r="53.5" stroke="url(#paint0_linear)" stroke-width="5"/>
</g>
<g filter="url(#filter1_d)">
<path d="M51.0407 96.2098C51.0407 96.2098 51.817 97.8822 47.7402 98.9185C43.6634 99.9547 41.4257 104.054 41.5137 107.502V109.725C41.5137 109.725 54.191 113.711 64.9412 110.032C64.9412 110.032 65.9764 100.719 58.6267 98.5347C58.6267 98.5347 57.1033 98.1509 57.5501 96.6157C57.5501 96.6157 61.0456 94.9285 60.4176 90.4825C59.7896 86.0365 57.7934 84.6563 55.73 84.5559C47.3969 84.15 47.3675 93.5011 51.0407 96.2098Z" fill="#F7AF87"/>
<path d="M65.9488 109.955C65.9488 109.955 66.1041 103.46 64.8429 101.255C63.7784 99.3908 61.0317 98.9125 58.713 98.3029C58.5841 98.2618 58.4463 98.2457 58.3093 98.2557C58.1398 98.2929 57.9835 98.3648 57.8538 98.4653C56.5932 99.277 55.0278 99.6637 53.4555 99.5518C51.8833 99.4399 50.414 98.8373 49.3275 97.8586C46.5463 98.5834 44.3707 98.5686 42.9112 100.721C41.4516 102.873 40.7287 107.075 41.003 109.552C40.9961 109.554 53.5268 113.898 65.9488 109.955Z" fill="#FFBA08"/>
<path d="M43.9411 100.781C43.9411 100.781 46.046 98.9347 46.8931 98.9258C47.7402 98.917 52.9315 111.516 52.9315 111.516L45.1833 111.2L43.9411 100.781Z" fill="url(#paint1_linear)"/>
<path d="M48.4804 85.2438C48.9652 83.8651 50.1694 82.5868 51.8101 82.2665C52.3001 82.1705 52.8056 82.1631 53.2991 82.082C53.5993 82.0318 53.8926 81.9565 54.1893 81.893C55.4059 81.6185 56.6865 81.6287 57.8969 81.9225C59.1121 82.224 60.1539 82.8997 60.8213 83.8193C61.4286 84.705 61.5994 85.7619 61.5114 86.7834C61.4234 87.8048 60.7316 89.6145 60.4055 90.5991C59.8258 89.9496 60.2123 88.1074 59.4014 87.6735C58.8251 87.365 58.0833 87.5052 57.4121 87.6026C55.8556 87.8314 54.2606 87.7812 52.728 87.455C52.0016 87.2985 51.2563 87.0801 50.5231 87.207C49.8865 87.3162 49.6604 87.734 49.3154 88.1975C49.0704 88.5178 48.9237 90.1164 48.715 90.4279C48.2285 90.2803 48.1336 87.7473 48.1387 87.3827C48.1349 86.6595 48.2499 85.9395 48.4804 85.2438Z" fill="#404040"/>
<path d="M60.8575 90.174C60.9347 90.1111 61.0261 90.0624 61.126 90.0306C61.226 89.9989 61.3324 89.9849 61.4389 89.9895C61.5202 90.0045 61.5966 90.035 61.6623 90.0787C61.7279 90.1224 61.7813 90.1782 61.8185 90.2419C61.8919 90.3698 61.9319 90.5098 61.9358 90.6522C61.9753 91.2216 61.758 91.7822 61.3285 92.2184C61.0921 92.4546 60.7402 92.6612 60.3865 92.5889C60.3156 92.5782 60.2505 92.5487 60.2002 92.5048C60.1615 92.4634 60.1333 92.4157 60.1173 92.3645C59.9797 91.9179 59.9702 91.4495 60.0897 90.9991C60.1294 90.8028 60.1518 90.6109 60.3451 90.484C60.5055 90.3777 60.6919 90.2803 60.8575 90.174Z" fill="#F7AF87"/>
<path d="M25.5773 96.9301C25.8498 96.8918 26.1466 96.8401 26.3243 96.66C26.4541 96.5 26.5278 96.3115 26.5365 96.1168C26.8695 93.975 27.796 87.6646 25.3288 84.0481C24.9838 83.5315 24.0935 83.4119 23.6139 83.0149C22.489 82.0701 21.0484 80.9247 19.0574 80.9365C14.2853 80.9645 12.1132 82.9853 10.1584 86.711C8.97145 88.971 8.60569 95.8157 9.5891 96.4784C10.6243 97.1766 13.3502 97.1206 14.6338 97.2298C18.2813 97.5375 21.9602 97.4368 25.5773 96.9301Z" fill="#404040"/>
<path d="M23.5501 86.4158C23.6409 86.3093 23.7589 86.222 23.8951 86.1604C24.2971 85.9922 24.7836 86.19 25.1028 86.4557C25.5055 86.8191 25.7857 87.2689 25.9137 87.7576C26.0362 88.2425 26.0941 88.7377 26.0862 89.2337C26.0966 89.8428 26.0747 90.452 26.0207 91.0611C25.9655 91.9571 25.7466 92.8402 25.372 93.6783C24.97 94.5064 24.3126 95.2636 23.412 95.7197C22.7426 93.6709 22.6805 91.5187 22.6236 89.3931C22.6132 89.0551 22.6046 88.7185 22.6132 88.382C22.6132 88.2491 22.5701 87.9923 22.6443 87.8742C22.7185 87.7561 22.8513 87.7797 22.9721 87.7015C23.1636 87.579 23.1308 87.3517 23.174 87.1657C23.2407 86.897 23.3684 86.6423 23.5501 86.4158Z" fill="url(#paint2_linear)"/>
<path d="M10.9124 90.7821C10.7368 90.8028 10.5694 90.859 10.4242 90.946C10.3004 91.0409 10.2041 91.1592 10.1429 91.2914C9.87064 91.8035 9.74429 92.3635 9.77428 92.9255C9.80428 93.4875 9.98975 94.0354 10.3155 94.5241C10.3155 94.5241 11.1281 93.7787 11.1988 93.7019C11.4787 93.391 11.7269 93.0601 11.9407 92.7129C12.1356 92.3955 13.1587 90.9239 12.6429 90.7423C12.3168 90.6286 11.3058 90.7113 10.9124 90.7821Z" fill="url(#paint3_linear)"/>
<path d="M12.0804 96.2098C11.7026 95.4614 11.7785 94.6068 11.9079 93.7993C12.0235 93.0967 12.1908 92.3734 12.6722 91.7962C13.1204 91.2897 13.7367 90.9106 14.4406 90.7083C15.1404 90.5097 15.8691 90.3954 16.6058 90.3688C17.6641 90.3068 18.7267 90.3216 19.782 90.4131C20.5248 90.4563 21.2539 90.606 21.9386 90.856C22.8704 91.2458 23.6128 91.903 24.0366 92.7129C24.4543 93.5223 24.5961 94.4163 24.4455 95.2917C24.4115 95.6684 24.2536 96.0292 23.99 96.3323C23.6812 96.603 23.2915 96.796 22.8634 96.8903C21.3106 97.3154 19.6647 97.2829 18.0568 97.2283C16.7231 97.184 15.3757 97.249 14.0627 97.0276C13.2933 96.8992 12.4324 96.9095 12.0804 96.2098Z" fill="url(#paint4_linear)"/>
<path d="M28.5706 110.031C17.8135 113.711 5.14307 109.724 5.14307 109.724V107.509C5.04646 104.052 7.28932 99.9517 11.3696 98.9185C15.4499 97.8852 15.1652 96.6763 15.1652 96.6763C11.4938 93.9691 11.0245 84.1515 19.3628 84.5589C21.4332 84.6592 23.4259 86.035 24.0504 90.4869C24.675 94.9389 20.5998 96.8829 20.5998 96.8829C20.5449 97.1015 20.5645 97.329 20.6563 97.5383C20.748 97.7476 20.9081 97.93 21.1174 98.0638C21.4552 98.2866 21.8427 98.4479 22.2561 98.5376C29.5972 100.718 28.5706 110.031 28.5706 110.031Z" fill="#F7AF87"/>
<path d="M14.8305 91.0508C16.4557 91.0508 18.0982 90.8515 19.5871 90.2965C21.076 89.7415 22.4028 88.8042 23.1619 87.5775C23.418 87.1926 23.5663 86.7621 23.5949 86.3199C23.6139 85.4844 22.9945 84.7035 22.1716 84.2533C21.3486 83.8031 20.3531 83.6407 19.3783 83.6053C17.2787 83.53 15.11 84.0363 13.5124 85.2039C12.8504 85.6848 12.31 86.2762 11.9244 86.942C11.5387 87.6077 11.3159 88.3338 11.2695 89.0758C11.1919 90.6965 13.2812 91.0493 14.8305 91.0508Z" fill="#404040"/>
<path d="M29.5695 109.955C29.5695 109.955 28.75 104.655 27.4888 102.445C26.4244 100.581 24.6508 98.9126 22.332 98.3044C22.2032 98.2632 22.0653 98.2471 21.9283 98.2572C21.7592 98.2941 21.6034 98.3661 21.4745 98.4668C20.2139 99.2785 18.6485 99.6652 17.0763 99.5533C15.504 99.4414 14.0348 98.8388 12.9482 97.8601C10.1692 98.5965 7.81895 100.205 6.36971 102.364C4.91012 104.514 4.35631 107.077 4.62373 109.554C4.62373 109.554 17.1458 113.898 29.5695 109.955Z" fill="#FFBA08"/>
<path d="M20.6257 111.358C20.6257 111.358 15.8519 111.811 14.8823 111.396C14.8823 111.396 17.2977 100.288 23.0463 98.6897C23.0463 98.6897 25.5376 99.0439 27.4889 102.445C28.0565 103.432 20.6257 111.358 20.6257 111.358Z" fill="url(#paint5_linear)"/>
<path d="M20.6395 113.685V106.96C20.6395 106.96 22.5218 100.908 29.0623 100.214C35.6028 99.5207 42.6799 100.445 42.6799 100.445C42.6799 100.445 49.5811 101.211 50.8319 108.493V114.242C50.8319 114.242 33.4514 118.54 20.6395 113.685Z" fill="#FFBA08"/>
<path d="M29.3004 92.4059C29.0209 92.2583 28.6776 92.1564 28.3705 92.2583C28.2433 92.3009 28.1294 92.3681 28.0375 92.4546C27.5527 92.8974 27.5803 93.5868 27.7338 94.1772C27.8193 94.5086 27.9347 94.8338 28.0789 95.15C28.139 95.2965 28.2258 95.434 28.336 95.5574C28.681 95.9072 29.2849 95.9544 29.8163 95.9013C30.1303 95.8703 30.4805 95.7891 30.6237 95.547C30.673 95.454 30.7011 95.3538 30.7065 95.2518C30.8497 94.0576 30.5219 93.0376 29.3004 92.4059Z" fill="#F7AF87"/>
<path d="M42.4574 92.89C42.849 92.6568 43.358 92.4767 43.7979 92.6391C43.97 92.7136 44.1164 92.8252 44.2226 92.9629C44.3289 93.1006 44.3912 93.2597 44.4035 93.4244C44.4234 93.7538 44.3562 94.0827 44.2068 94.3868C44.0553 94.7773 43.8182 95.1395 43.5081 95.454C43.1933 95.7693 42.7482 95.9682 42.2659 96.009C42.026 96.025 41.7857 95.9821 41.5733 95.8854C41.361 95.7887 41.1852 95.6421 41.0668 95.4629C40.9497 95.2235 40.8955 94.965 40.9081 94.7056C40.8866 94.5064 40.913 94.3054 40.9857 94.1152C41.1755 93.7093 42.0554 93.1292 42.4574 92.89Z" fill="#F7AF87"/>
<path d="M31.7037 100.865C31.5505 101.091 31.4607 101.343 31.4415 101.604C31.4529 101.756 31.4961 101.906 31.5692 102.046C32.2006 103.375 33.5084 104.045 34.7696 104.355C35.1481 104.456 35.5412 104.511 35.9376 104.519C37.128 104.519 38.3047 103.819 39.0207 102.69C39.0625 102.632 39.089 102.567 39.0983 102.5C39.0943 102.412 39.0653 102.326 39.0138 102.25C38.5686 101.429 38.6497 100.371 38.767 99.4071C38.7849 99.3274 38.779 99.2451 38.7498 99.1679C38.7321 99.1386 38.7078 99.1127 38.6781 99.0916C38.6485 99.0706 38.6142 99.0549 38.5773 99.0454C37.8061 98.7679 36.9779 98.9406 36.1619 98.914C35.0404 98.8786 33.9535 98.4373 32.8303 98.4358C32.33 98.4358 32.2921 98.5952 32.2213 99.131C32.1591 99.7292 31.9843 100.315 31.7037 100.865Z" fill="#F7AF87"/>
<path d="M31.7175 98.1036C31.7175 98.1036 32.3645 100.274 33.9328 101.695C35.5011 103.117 39.2139 102.845 38.7756 101.575C38.4064 100.511 39.0983 98.1036 39.0983 98.1036H31.7175Z" fill="url(#paint6_linear)"/>
<path d="M48.47 90.0928C48.2974 89.9452 48.0956 89.7976 47.8523 89.7843C47.7573 89.7845 47.6634 89.8028 47.5777 89.8381C47.4921 89.8733 47.4167 89.9246 47.3572 89.988C47.2384 90.1168 47.1595 90.2691 47.1277 90.4308C47.0461 90.8228 47.0823 91.2261 47.233 91.6029C47.4055 92.0634 47.7143 92.5299 48.2388 92.7055C48.3291 92.7428 48.429 92.7595 48.5291 92.7541C48.6291 92.7486 48.7258 92.7212 48.8099 92.6745C48.9227 92.5777 48.9929 92.4504 49.0083 92.3143C49.2136 91.4449 49.2464 90.7393 48.47 90.0928Z" fill="#F7AF87"/>
<path d="M42.052 94.0119C41.5568 97.5708 39.2449 100.507 35.7806 100.507C32.3162 100.507 29.5092 97.6003 29.5092 94.0119C29.5092 90.4234 31.7365 86.3774 35.2026 86.3774C38.6687 86.3774 43.0647 86.7376 42.052 94.0119Z" fill="#F7AF87"/>
<path d="M28.5637 92.8384C28.3337 91.4302 28.1825 90.0141 28.11 88.5901C28.0789 87.9628 28.091 87.2616 28.5827 86.7996C28.7123 86.6984 28.828 86.585 28.9278 86.4616C29.0095 86.3032 29.0546 86.1328 29.0606 85.9597C29.2469 84.615 30.3839 83.4916 31.6882 82.7255C33.1174 81.8882 34.7746 81.3798 36.5 81.2494C37.0548 81.1978 37.6155 81.2182 38.1632 81.3099C38.7138 81.4249 39.2424 81.6063 39.7332 81.8487C40.513 82.2104 41.2635 82.6473 41.8173 83.2392C42.3712 83.8311 42.711 84.6002 42.5937 85.3515C42.9739 85.4907 43.3153 85.697 43.5957 85.957C43.8761 86.217 44.0891 86.5248 44.2207 86.8601C44.4749 87.5559 44.556 88.2895 44.4587 89.0138C44.2862 90.7379 43.5202 92.5077 41.9122 93.5558C41.9381 92.3504 41.6257 91.1573 41.0013 90.0766C40.7624 89.7082 40.5454 89.3299 40.3509 88.9429C40.1677 88.5286 40.0787 88.0882 40.0886 87.6454C39.4157 87.9524 39.0207 88.5813 38.3858 88.9444C37.9797 89.1549 37.5297 89.2958 37.0607 89.3592C35.5516 89.6142 33.9941 89.5677 32.5095 89.2234C31.9229 89.0876 31.1758 88.9459 30.8066 89.3592C30.5771 89.6145 30.6168 89.9688 30.5858 90.2906C30.5347 90.6413 30.4357 90.9856 30.2907 91.3165L29.3763 93.6783C29.0658 93.4524 28.6224 93.1852 28.5637 92.8384Z" fill="#404040"/>
<path d="M21.145 98.1273C18.2448 99.717 16.2245 97.0217 16.1313 96.8873C16.8125 97.2134 17.5799 97.3846 18.3604 97.3846C19.1409 97.3846 19.9083 97.2134 20.5895 96.8873C20.5345 97.1059 20.5541 97.3334 20.6459 97.5427C20.7376 97.752 20.8977 97.9344 21.107 98.0682L21.145 98.1273Z" fill="url(#paint7_linear)"/>
<path d="M48.4441 91.6914C48.3233 91.5571 48.1957 91.3962 48.2543 91.2309C48.313 91.0656 48.5166 90.9799 48.5183 90.8205C48.5144 90.7752 48.4993 90.7312 48.474 90.6912C48.4487 90.6513 48.4138 90.6164 48.3717 90.5888C48.2725 90.5106 48.1455 90.4633 48.0111 90.4545C47.9649 90.4515 47.9187 90.4602 47.8782 90.4795C47.8325 90.5078 47.7981 90.5475 47.7799 90.5932C47.578 90.9799 47.6453 91.4346 47.823 91.8302C47.8529 91.9053 47.8991 91.975 47.9593 92.0354C48.0444 92.1019 48.1476 92.149 48.2595 92.1726C48.432 92.2199 48.6356 92.2214 48.6753 92.0368C48.7046 91.904 48.5235 91.7859 48.4441 91.6914Z" fill="url(#paint8_linear)"/>
<path d="M60.7298 91.721C60.8506 91.5866 60.9782 91.4257 60.9196 91.2604C60.8609 91.0951 60.6573 91.0095 60.6539 90.85C60.6583 90.8047 60.6737 90.7606 60.6993 90.7207C60.7248 90.6808 60.7599 90.6459 60.8023 90.6183C60.901 90.5397 61.0283 90.4923 61.1628 90.484C61.2085 90.481 61.2542 90.4897 61.294 90.5091C61.3402 90.5373 61.3751 90.5769 61.394 90.6227C61.5942 91.0095 61.5269 91.4641 61.3492 91.8597C61.3225 91.9463 61.2673 92.0246 61.1903 92.0853C61.1132 92.146 61.0175 92.1865 60.9144 92.2022C60.7419 92.2494 60.5383 92.2509 60.4969 92.0664C60.4693 91.9365 60.6435 91.8154 60.7298 91.721Z" fill="url(#paint9_linear)"/>
<path d="M42.0623 94.5241C42.2533 94.5429 42.4458 94.5031 42.6058 94.4119C42.6894 94.3781 42.7622 94.3275 42.818 94.2643C42.9594 94.0739 42.8042 93.8096 42.906 93.603C42.9561 93.5278 43.0261 93.4636 43.1102 93.4154C43.1943 93.3673 43.2904 93.3365 43.3908 93.3255C43.4613 93.3054 43.5376 93.3054 43.6081 93.3255C43.6608 93.3557 43.7032 93.3973 43.731 93.446C43.7589 93.4947 43.7713 93.5489 43.7669 93.603C43.802 94.0708 43.6267 94.5323 43.2769 94.8931C43.1018 95.0705 42.8865 95.2156 42.6439 95.3197C42.4013 95.4237 42.1365 95.4845 41.8656 95.4983C41.838 95.5016 41.8098 95.498 41.7845 95.488C41.7568 95.4721 41.7371 95.4478 41.7293 95.4201C41.6745 95.2866 41.6616 95.1431 41.6919 95.004C41.7222 94.865 41.7946 94.7351 41.9018 94.6274" fill="url(#paint10_linear)"/>
<path d="M28.5378 93.9145C28.6172 94.0281 28.7777 94.0724 28.9105 94.1388C29.0434 94.2073 29.154 94.3034 29.2318 94.4183C29.3096 94.5331 29.3522 94.663 29.3556 94.7957C29.3657 94.8832 29.3426 94.9712 29.2898 95.0467C29.237 95.1222 29.1573 95.1812 29.0623 95.2149C28.8708 95.2607 28.6793 95.1441 28.5447 95.0186C28.3709 94.8529 28.237 94.6596 28.1506 94.4496C28.0641 94.2397 28.0269 94.0172 28.041 93.7949C28.0513 93.6473 28.1255 93.2753 28.4015 93.3521C28.6224 93.4185 28.4309 93.7609 28.5378 93.9145Z" fill="url(#paint11_linear)"/>
<path d="M29.1607 89.402C28.976 89.6209 28.8667 89.8796 28.8449 90.1489C28.8101 90.5379 28.8263 90.9291 28.8932 91.315L29.1538 93.321C29.4781 92.3616 30.2441 91.5246 30.4184 90.5371C30.4736 90.2227 30.4632 89.895 30.5806 89.5909C30.6323 89.4581 30.9394 89.1304 30.8256 89.0005C30.7117 88.8706 30.0578 88.9739 29.887 89.0152C29.6039 89.0767 29.3501 89.2118 29.1607 89.402Z" fill="url(#paint12_linear)"/>
<path d="M42.0433 86.0527C42.0695 86.04 42.0997 86.0348 42.1296 86.0379C42.1675 86.0453 42.19 86.0763 42.2107 86.1058C42.6075 86.6859 43.0112 87.2779 43.1855 87.9347C43.2759 88.2979 43.3125 88.6694 43.2941 89.0403C43.2498 90.288 42.7986 91.5003 41.9916 92.5402C41.8294 92.0811 41.8466 91.5881 41.7172 91.1202C41.5447 90.4854 41.1117 89.9289 40.7338 89.3621C40.3888 88.8455 39.7867 87.9731 40.2249 87.4092C40.6602 86.8126 41.2932 86.3404 42.0433 86.0527Z" fill="url(#paint13_linear)"/>
<path d="M51.0407 96.2098C51.0407 96.2098 52.0223 97.2342 54.1582 97.2888C56.4632 97.3479 57.5501 96.6187 57.5501 96.6187C57.5501 96.6187 56.5339 98.5376 53.9961 98.9657C52.3898 99.2402 50.5835 98.6498 50.2608 97.9324C50.2608 97.9398 51.3133 97.1028 51.0407 96.2098Z" fill="url(#paint14_linear)"/>
<path d="M31.7641 100.307C31.7641 100.307 32.3869 102.852 34.6005 103.444C36.814 104.036 38.6825 102.142 38.7515 100.899C38.8205 99.6565 39.1673 100.014 39.1673 100.014L39.7211 100.309V104.985L35.5011 104.451L31.35 105.458C31.35 105.458 30.2424 101.195 30.8652 100.011" fill="#FFBA08"/>
</g>
<g filter="url(#filter2_d)">
<path d="M107.886 52.2165C111.114 54.16 111.114 58.84 107.886 60.7835L70.0791 83.5466C66.7466 85.5531 62.5 83.153 62.5 79.2631L62.5 33.7369C62.5 29.847 66.7466 27.4469 70.0791 29.4534L107.886 52.2165Z" fill="url(#paint15_linear)"/>
</g>
<defs>
<filter id="filter0_d" x="20" y="0" width="120" height="120" filterUnits="userSpaceOnUse" color-interpolation-filters="sRGB">
<feFlood flood-opacity="0" result="BackgroundImageFix"/>
<feColorMatrix in="SourceAlpha" type="matrix" values="0 0 0 0 0 0 0 0 0 0 0 0 0 0 0 0 0 0 127 0"/>
<feOffset dy="4"/>
<feGaussianBlur stdDeviation="2"/>
<feColorMatrix type="matrix" values="0 0 0 0 0 0 0 0 0 0 0 0 0 0 0 0 0 0 0.25 0"/>
<feBlend mode="normal" in2="BackgroundImageFix" result="effect1_dropShadow"/>
<feBlend mode="normal" in="SourceGraphic" in2="effect1_dropShadow" result="shape"/>
</filter>
<filter id="filter1_d" x="-4" y="70" width="81" height="54" filterUnits="userSpaceOnUse" color-interpolation-filters="sRGB">
<feFlood flood-opacity="0" result="BackgroundImageFix"/>
<feColorMatrix in="SourceAlpha" type="matrix" values="0 0 0 0 0 0 0 0 0 0 0 0 0 0 0 0 0 0 127 0"/>
<feOffset dy="4"/>
<feGaussianBlur stdDeviation="2"/>
<feColorMatrix type="matrix" values="0 0 0 0 0 0 0 0 0 0 0 0 0 0 0 0 0 0 0.25 0"/>
<feBlend mode="normal" in2="BackgroundImageFix" result="effect1_dropShadow"/>
<feBlend mode="normal" in="SourceGraphic" in2="effect1_dropShadow" result="shape"/>
</filter>
<filter id="filter2_d" x="58.5" y="28.7291" width="55.8066" height="63.5417" filterUnits="userSpaceOnUse" color-interpolation-filters="sRGB">
<feFlood flood-opacity="0" result="BackgroundImageFix"/>
<feColorMatrix in="SourceAlpha" type="matrix" values="0 0 0 0 0 0 0 0 0 0 0 0 0 0 0 0 0 0 127 0"/>
<feOffset dy="4"/>
<feGaussianBlur stdDeviation="2"/>
<feColorMatrix type="matrix" values="0 0 0 0 0 0 0 0 0 0 0 0 0 0 0 0 0 0 0.25 0"/>
<feBlend mode="normal" in2="BackgroundImageFix" result="effect1_dropShadow"/>
<feBlend mode="normal" in="SourceGraphic" in2="effect1_dropShadow" result="shape"/>
</filter>
<linearGradient id="paint0_linear" x1="80" y1="0" x2="80" y2="112" gradientUnits="userSpaceOnUse">
<stop stop-color="#D00000"/>
<stop offset="1" stop-color="#FFBA08" stop-opacity="0.88"/>
</linearGradient>
<linearGradient id="paint1_linear" x1="37.2091" y1="101.171" x2="72.2183" y2="122.217" gradientUnits="userSpaceOnUse">
<stop stop-opacity="0"/>
<stop offset="0.99"/>
</linearGradient>
<linearGradient id="paint2_linear" x1="22.1095" y1="92.118" x2="27.143" y2="86.9869" gradientUnits="userSpaceOnUse">
<stop stop-opacity="0"/>
<stop offset="0.6" stop-opacity="0.36"/>
<stop offset="0.99"/>
</linearGradient>
<linearGradient id="paint3_linear" x1="205.192" y1="867.83" x2="219.349" y2="723.167" gradientUnits="userSpaceOnUse">
<stop stop-opacity="0"/>
<stop offset="0.99"/>
</linearGradient>
<linearGradient id="paint4_linear" x1="1365.43" y1="1328.18" x2="1360.89" y2="1703.41" gradientUnits="userSpaceOnUse">
<stop stop-opacity="0"/>
<stop offset="0.99"/>
</linearGradient>
<linearGradient id="paint5_linear" x1="1073.28" y1="3458.37" x2="2742.01" y2="4300.38" gradientUnits="userSpaceOnUse">
<stop stop-opacity="0"/>
<stop offset="0.99"/>
</linearGradient>
<linearGradient id="paint6_linear" x1="1448.89" y1="1278.56" x2="1593.25" y2="946.166" gradientUnits="userSpaceOnUse">
<stop stop-opacity="0"/>
<stop offset="0.99"/>
</linearGradient>
<linearGradient id="paint7_linear" x1="545.173" y1="513.011" x2="550.213" y2="445.493" gradientUnits="userSpaceOnUse">
<stop stop-opacity="0"/>
<stop offset="0.99"/>
</linearGradient>
<linearGradient id="paint8_linear" x1="328.929" y1="407.865" x2="347.412" y2="408.405" gradientUnits="userSpaceOnUse">
<stop stop-opacity="0"/>
<stop offset="0.99"/>
</linearGradient>
<linearGradient id="paint9_linear" x1="1584.74" y1="408.248" x2="1566.26" y2="408.788" gradientUnits="userSpaceOnUse">
<stop stop-opacity="0"/>
<stop offset="0.99"/>
</linearGradient>
<linearGradient id="paint10_linear" x1="579.114" y1="545.613" x2="519.747" y2="520.312" gradientUnits="userSpaceOnUse">
<stop stop-opacity="0"/>
<stop offset="0.99"/>
</linearGradient>
<linearGradient id="paint11_linear" x1="242.98" y1="477.876" x2="266.43" y2="469.608" gradientUnits="userSpaceOnUse">
<stop stop-opacity="0"/>
<stop offset="0.99"/>
</linearGradient>
<linearGradient id="paint12_linear" x1="388.091" y1="938.064" x2="330.313" y2="822.52" gradientUnits="userSpaceOnUse">
<stop stop-opacity="0"/>
<stop offset="0.6" stop-opacity="0.36"/>
<stop offset="0.99"/>
</linearGradient>
<linearGradient id="paint13_linear" x1="876.277" y1="1063.14" x2="716.971" y2="1151.64" gradientUnits="userSpaceOnUse">
<stop stop-opacity="0"/>
<stop offset="0.6" stop-opacity="0.36"/>
<stop offset="0.99"/>
</linearGradient>
<linearGradient id="paint14_linear" x1="2373.8" y1="795.427" x2="2352.81" y2="550.598" gradientUnits="userSpaceOnUse">
<stop stop-opacity="0"/>
<stop offset="0.99"/>
</linearGradient>
<linearGradient id="paint15_linear" x1="115" y1="56.5" x2="45" y2="56.5" gradientUnits="userSpaceOnUse">
<stop stop-color="#D00000" stop-opacity="0.7"/>
<stop offset="1" stop-color="#FFBA08"/>
</linearGradient>
</defs>
</svg>
